<svg width="13" height="13" viewBox="0 0 13 13" fill="none" xmlns="http://www.w3.org/2000/svg">
<path d="M10.9578 0H1.81812C0.786211 0 0 0.786213 0 1.81812V10.9578C0 11.9897 0.786211 12.776 1.81812 12.776H10.9578C11.9897 12.776 12.776 11.9897 12.776 10.9578V1.81812C12.776 0.786213 11.9897 0 10.9578 0ZM6.38798 10.2208C8.50093 10.2208 10.2208 8.55006 10.2208 6.53539C10.2208 6.19142 10.1716 5.79832 10.0734 5.50349H11.1544V10.7121C11.1544 10.9578 10.9578 11.2035 10.663 11.2035H2.11295C1.86726 11.2035 1.62157 11.007 1.62157 10.7121V5.45435H2.75175C2.65347 5.79832 2.60433 6.14229 2.60433 6.48626C2.55519 8.55006 4.27503 10.2208 6.38798 10.2208ZM6.38798 8.74662C5.01211 8.74662 3.93106 7.66558 3.93106 6.33884C3.93106 5.01211 5.01211 3.93106 6.38798 3.93106C7.76385 3.93106 8.84489 5.01211 8.84489 6.33884C8.84489 7.71471 7.76385 8.74662 6.38798 8.74662ZM11.1053 3.48882C11.1053 3.78365 10.8596 4.02934 10.5647 4.02934H9.18886C8.89403 4.02934 8.64834 3.78365 8.64834 3.48882V2.16208C8.64834 1.86726 8.89403 1.62156 9.18886 1.62156H10.5647C10.8596 1.62156 11.1053 1.86726 11.1053 2.16208V3.48882Z" fill="url(#paint0_linear)"/>
<defs>
<linearGradient id="paint0_linear" x1="12.7613" y1="10.5763" x2="12.7613" y2="1.83036e-09" gradientUnits="userSpaceOnUse">
<stop stop-color="#C84E89"/>
<stop offset="1" stop-color="#F15F79"/>
</linearGradient>
</defs>
</svg>
